HIERARCHY
ROOT Hips
{
	OFFSET 0.00000 0.00000 0.00000
	CHANNELS 6 Xposition Yposition Zposition Zrotation Yrotation Xrotation 
	JOINT LHipJoint
	{
		OFFSET 0 0 0
		CHANNELS 3 Zrotation Yrotation Xrotation
		JOINT LeftUpLeg
		{
			OFFSET 1.23340 -1.80723 0.69510
			CHANNELS 3 Zrotation Yrotation Xrotation
			JOINT LeftLeg
			{
				OFFSET 2.50056 -6.87023 0.00000
				CHANNELS 3 Zrotation Yrotation Xrotation
				JOINT LeftFoot
				{
					OFFSET 2.85931 -7.85591 0.00000
					CHANNELS 3 Zrotation Yrotation Xrotation
					JOINT LeftToeBase
					{
						OFFSET 0.21001 -0.57700 2.07823
						CHANNELS 3 Zrotation Yrotation Xrotation
						End Site
						{
							OFFSET 0.00000 -0.00000 1.08338
						}
					}
				}
			}
		}
	}
	JOINT RHipJoint
	{
		OFFSET 0 0 0
		CHANNELS 3 Zrotation Yrotation Xrotation
		JOINT RightUpLeg
		{
			OFFSET -1.40842 -1.80723 0.69510
			CHANNELS 3 Zrotation Yrotation Xrotation
			JOINT RightLeg
			{
				OFFSET -2.54876 -7.00266 0.00000
				CHANNELS 3 Zrotation Yrotation Xrotation
				JOINT RightFoot
				{
					OFFSET -2.74835 -7.55104 0.00000
					CHANNELS 3 Zrotation Yrotation Xrotation
					JOINT RightToeBase
					{
						OFFSET -0.22633 -0.62184 2.00890
						CHANNELS 3 Zrotation Yrotation Xrotation
						End Site
						{
							OFFSET -0.00000 -0.00000 1.05493
						}
					}
				}
			}
		}
	}
	JOINT LowerBack
	{
		OFFSET 0 0 0
		CHANNELS 3 Zrotation Yrotation Xrotation
		JOINT Spine
		{
			OFFSET -0.02340 2.02740 -0.12728
			CHANNELS 3 Zrotation Yrotation Xrotation
			JOINT Spine1
			{
				OFFSET -0.00862 2.03614 -0.01188
				CHANNELS 3 Zrotation Yrotation Xrotation
				JOINT Neck
				{
					OFFSET 0 0 0
					CHANNELS 3 Zrotation Yrotation Xrotation
					JOINT Neck1
					{
						OFFSET 0.03380 1.76650 0.27670
						CHANNELS 3 Zrotation Yrotation Xrotation
						JOINT Head
						{
							OFFSET -0.01114 1.80516 -0.21451
							CHANNELS 3 Zrotation Yrotation Xrotation
							End Site
							{
								OFFSET -0.00766 1.81942 -0.10287
							}
						}
					}
				}
				JOINT LeftShoulder
				{
					OFFSET 0 0 0
					CHANNELS 3 Zrotation Yrotation Xrotation
					JOINT LeftArm
					{
						OFFSET 3.22358 1.39475 0.18630
						CHANNELS 3 Zrotation Yrotation Xrotation
						JOINT LeftForeArm
						{
							OFFSET 5.45077 -0.00000 0.00000
							CHANNELS 3 Zrotation Yrotation Xrotation
							JOINT LeftHand
							{
								OFFSET 3.05488 -0.00000 0.00000
								CHANNELS 3 Zrotation Yrotation Xrotation
								JOINT LeftFingerBase
								{
									OFFSET 0 0 0
									CHANNELS 3 Zrotation Yrotation Xrotation
									JOINT LeftHandIndex1
									{
										OFFSET 0.63882 -0.00000 0.00000
										CHANNELS 3 Zrotation Yrotation Xrotation
										End Site
										{
											OFFSET 0.51503 -0.00000 0.00000
										}
									}
								}
								JOINT LThumb
								{
									OFFSET 0 0 0
									CHANNELS 3 Zrotation Yrotation Xrotation
									End Site
									{
										OFFSET 0.52290 -0.00000 0.52290
									}
								}
							}
						}
					}
				}
				JOINT RightShoulder
				{
					OFFSET 0 0 0
					CHANNELS 3 Zrotation Yrotation Xrotation
					JOINT RightArm
					{
						OFFSET -3.57143 1.14055 0.30691
						CHANNELS 3 Zrotation Yrotation Xrotation
						JOINT RightForeArm
						{
							OFFSET -4.88702 -0.00000 -0.00000
							CHANNELS 3 Zrotation Yrotation Xrotation
							JOINT RightHand
							{
								OFFSET -3.22603 -0.00000 0.00000
								CHANNELS 3 Zrotation Yrotation Xrotation
								JOINT RightFingerBase
								{
									OFFSET 0 0 0
									CHANNELS 3 Zrotation Yrotation Xrotation
									JOINT RightHandIndex1
									{
										OFFSET -0.71629 -0.00000 0.00000
										CHANNELS 3 Zrotation Yrotation Xrotation
										End Site
										{
											OFFSET -0.57749 -0.00000 0.00000
										}
									}
								}
								JOINT RThumb
								{
									OFFSET 0 0 0
									CHANNELS 3 Zrotation Yrotation Xrotation
									End Site
									{
										OFFSET -0.58631 -0.00000 0.58631
									}
								}
							}
						}
					}
				}
			}
		}
	}
}
MOTION
Frames: 14
Frame Time: 0.142857
0.00 0.00 0.00 0 0 0 0 0 0 -21 0 0 0 0 0 0 0 0 0 0 0 0 0 0 21 0 0 0 0 0 0 0 0 0 0 0 0 0 0 0 0 0 0 0 0 0 0 -16 0 0 21 0 0 11 0 0 0 -8 0 0 0 0 0 0 0 0 0 0 0 0 0 0 0 0 0 0 0 0 8 0 0 0 0 0 0 0 0 0 0 0 0 0 0 0 0 0
0.00 0.00 0.00 177.4100 -34.2472 -166.0960 0.0000 0.0000 0.0000 -20.4309 -5.3158 -46.8500 3.3197 11.1955 32.9419 0.2370 -8.1516 -9.6858 0.8431 -5.8567 -16.3692 0.0000 0.0000 0.0000 20.8114 0.4456 -9.0942 -1.3207 -7.2784 20.5427 -0.8761 16.0317 -18.8219 -0.0668 -1.6673 4.5870 -0.6719 -0.4098 -6.4962 -0.3340 -0.5864 -2.1919 -0.0113 -0.3309 1.3866 0.6398 0.5656 -17.5119 -0.3898 -0.0665 26.7556 -0.3243 -0.3115 11.6436 -0.0000 0.0000 0.0000 -80.6665 7.9521 38.8671 18.2835 -28.5186 -4.6838 -0.0000 0.0000 -7.9709 13.5410 26.6614 6.1679 -7.1250 0.0000 -0.0000 -17.9713 56.3775 -5.1297 -0.0000 0.0000 0.0000 87.2382 -0.5387 46.3802 -14.4504 23.3750 -3.0045 0.0000 0.0000 4.8818 -23.8628 10.0757 -4.4254 7.1250 -0.0000 -0.0000 2.2331 -18.9888 1.3860
0.00 0.00 0.00 179.5570 -28.7228 -165.1600 0.0000 0.0000 0.0000 -20.9264 -5.5257 -45.7857 2.1488 9.1694 26.3268 -0.1369 -8.6424 -2.8626 0.4811 -4.4480 -12.3405 0.0000 0.0000 0.0000 18.8883 -3.7290 5.6162 -0.3316 -3.7009 10.2367 0.4148 15.3043 -5.3983 -0.0050 0.4554 -1.2512 -0.8093 0.3422 -9.5384 -0.6858 0.3655 -2.9630 -0.2154 0.1010 2.2703 2.4983 1.5479 -18.5733 -1.9082 1.3608 25.2832 -0.9623 0.3843 11.3299 0.0000 0.0000 0.0000 -80.5873 8.5169 38.1446 17.9769 -28.1275 -4.5383 -0.0000 0.0000 -8.0432 13.2381 26.1991 5.9295 -7.1250 0.0000 -0.0000 -18.0042 55.8755 -4.9179 0.0000 0.0000 0.0000 87.8388 -2.5076 45.9984 -14.0501 22.8063 -2.8475 0.0000 0.0000 5.7457 -22.7521 10.7599 -4.4768 7.1250 -0.0000 -0.0000 3.0456 -18.3454 1.9350
0.00 0.00 0.00 178.2530 -29.5213 -164.7490 0.0000 0.0000 0.0000 -23.5487 -3.6583 -42.9819 2.8560 10.4582 30.4736 -0.2600 -11.6388 -3.6241 0.2193 -3.0146 -8.3194 0.0000 0.0000 0.0000 16.6037 -3.5982 1.3609 -1.8002 -8.4370 24.0494 0.3717 10.7441 3.4239 -0.6057 4.9818 -13.8567 -2.9900 -0.3486 -8.9733 -1.1973 -0.4140 -3.4200 0.4001 -0.2949 1.4919 3.3800 1.5513 -18.8759 -2.3193 1.1998 25.3640 -1.2875 0.3448 11.4265 0.0000 0.0000 0.0000 -80.3686 7.2159 39.3842 15.6925 -25.1019 -3.5145 -0.0000 0.0000 -6.0147 12.6791 26.4314 5.7187 -7.1250 0.0000 -0.0000 -18.7054 55.9847 -5.1693 0.0000 0.0000 0.0000 88.0266 -4.8902 44.5424 -14.5791 23.5566 -3.0558 0.0000 0.0000 4.3879 -22.6145 10.5192 -4.3489 7.1250 -0.0000 -0.0000 3.1341 -18.6161 1.9726
0.00 0.00 0.00 177.0010 -30.4970 -164.4510 0.0000 0.0000 0.0000 -25.5219 -3.0608 -37.9896 2.6218 10.0560 29.1584 -0.2961 -14.1091 -5.8932 0.3053 -3.5527 -9.8214 0.0000 0.0000 0.0000 13.9223 -3.0659 -6.7231 -4.8734 -13.2398 40.2729 -0.2631 5.8595 13.5961 -0.1689 2.6476 -7.2990 -4.2762 -0.9958 -8.4157 -1.4335 -1.2006 -3.4175 0.8070 -0.6804 1.2241 3.1142 1.5671 -18.8074 -2.2613 1.3217 24.9059 -1.1956 0.3930 11.2404 -0.0000 0.0000 0.0000 -80.1793 5.5927 41.3682 16.5125 -26.2106 -3.8695 -0.0000 0.0000 -7.3682 12.2573 26.6187 5.5597 -7.1250 0.0000 -0.0000 -19.2437 56.0774 -5.3698 -0.0000 0.0000 0.0000 86.9795 -5.9602 45.8766 -16.4949 26.1871 -3.8618 0.0000 0.0000 1.1413 -22.7466 9.8966 -4.1216 7.1250 -0.0000 -0.0000 3.0197 -19.2752 1.8562
0.00 0.00 0.00 175.3220 -30.4322 -164.0580 0.0000 0.0000 0.0000 -28.1023 -1.2528 -33.2408 2.3940 9.6426 27.8270 -0.2989 -16.5659 -8.3504 0.3901 -4.0104 -11.1060 0.0000 0.0000 0.0000 10.3167 -1.3625 -17.5333 -9.0609 -16.8467 56.3005 -0.0032 8.6190 12.3451 -0.2881 3.4518 -9.5393 -5.4461 -1.2411 -7.7159 -2.0811 -1.4541 -2.9997 0.7773 -0.8092 1.2875 3.0198 1.4808 -18.6059 -2.2057 1.2971 23.6145 -1.1449 0.4144 10.7174 0.0000 -0.0000 0.0000 -79.1710 3.3207 42.9566 20.0328 -30.6818 -5.5481 -0.0000 0.0000 -10.4847 12.2992 26.6236 5.5801 -7.1250 0.0000 -0.0000 -19.2045 56.0904 -5.3645 0.0000 -0.0000 0.0000 86.4148 -5.7098 46.0501 -18.3842 28.6464 -4.7320 0.0000 -0.0000 -0.8886 -22.6299 10.3883 -4.2988 7.1250 -0.0000 -0.0000 3.1188 -18.7555 1.9533
0.00 0.00 0.00 173.5700 -30.9635 -164.0060 0.0000 0.0000 0.0000 -30.5159 1.1418 -29.0651 2.3981 9.6503 27.8514 -0.4173 -19.3021 -9.6484 0.1489 -2.4864 -6.8519 0.0000 0.0000 0.0000 7.8175 0.0775 -28.7948 -11.0721 -17.9702 63.0154 0.1840 9.5894 -2.7588 -0.3853 3.9862 -11.0378 -6.9210 -1.5523 -6.3258 -2.2608 -1.8421 -2.5615 1.4087 -0.9888 1.0236 2.4014 1.2771 -18.4501 -1.8912 1.1315 23.2979 -0.9486 0.3285 10.5594 -0.0000 -0.0000 0.0000 -79.3460 0.8091 42.5138 24.0405 -35.2070 -7.7299 -0.0000 0.0000 -13.1890 12.5091 26.7948 5.7114 -7.1250 0.0000 -0.0000 -19.0977 56.2945 -5.4287 -0.0000 -0.0000 0.0000 85.6338 -4.7159 44.4102 -18.6099 28.9311 -4.8407 0.0000 -0.0000 -0.4517 -22.9056 9.5243 -3.9993 7.1250 -0.0000 -0.0000 2.8946 -19.6639 1.7540
0.00 0.00 0.00 173.3240 -32.6308 -164.3070 0.0000 0.0000 0.0000 -30.9471 4.6275 -24.0918 2.4755 9.7931 28.3094 -0.2560 -22.0766 -13.5630 0.0890 -1.9246 -5.2973 0.0000 0.0000 0.0000 8.5984 3.9549 -38.4094 -7.1362 -15.4455 49.3874 -0.4255 10.0574 -12.6878 -0.2384 3.1422 -8.6748 -6.8855 -1.8518 -6.2132 -2.0442 -2.1972 -2.1635 1.5798 -1.1684 1.4099 2.1065 0.8799 -18.3933 -1.0958 0.4414 23.4085 -0.7147 0.0822 10.5697 -0.0000 0.0000 0.0000 -79.0547 -0.1522 43.7943 28.7903 -39.8336 -10.6261 -0.0000 0.0000 -15.5197 12.5840 26.6900 5.7258 -7.1250 0.0000 -0.0000 -18.9580 56.2106 -5.3479 -0.0000 0.0000 0.0000 85.1032 -4.6033 40.2973 -18.0361 28.2034 -4.5663 0.0000 0.0000 1.0448 -22.8195 9.8294 -4.1085 7.1250 -0.0000 -0.0000 2.9656 -19.3416 1.8184
0.00 0.00 0.00 172.7360 -34.5559 -163.6530 0.0000 0.0000 0.0000 -30.8779 8.9273 -10.9371 0.8946 6.0283 16.8667 -0.1501 -21.0024 -13.5769 0.2114 -2.9599 -8.1672 0.0000 0.0000 0.0000 12.8793 3.1865 -41.5680 -1.2611 -7.1187 20.0674 -0.5489 6.4958 -13.2837 -0.7113 5.3902 -15.0250 -6.7855 -1.9880 -7.6453 -2.0431 -2.2917 -2.4082 1.4720 -1.2354 1.9547 2.0767 0.2338 -18.3056 -0.5414 -0.5580 22.7865 -0.6471 -0.2969 10.3109 -0.0000 -0.0000 0.0000 -78.1299 2.4738 46.9981 26.6416 -37.8353 -9.2784 -0.0000 0.0000 -14.9147 12.8820 26.2085 5.7675 -7.1250 0.0000 -0.0000 -18.3686 55.8134 -4.9943 -0.0000 -0.0000 0.0000 85.3277 -7.2203 36.9344 -18.0120 28.1725 -4.5549 0.0000 0.0000 0.7486 -22.7692 8.4781 -3.5410 7.1250 -0.0000 -0.0000 2.9638 -20.8024 1.7203
0.00 0.00 0.00 176.7590 -39.0708 -167.8530 0.0000 0.0000 0.0000 -19.4910 5.6957 -8.9232 5.2699 13.6814 41.9761 -0.6681 -14.5658 8.4051 1.4439 -7.5963 -21.4945 0.0000 0.0000 0.0000 17.9295 3.6410 -30.7445 -1.9987 -8.8634 25.3689 -0.0295 6.7983 -5.4554 -0.0080 -0.5777 1.5874 -2.0709 -1.8643 -8.8278 -0.1444 -2.4223 -2.5197 0.7501 -1.2673 2.4108 1.2002 -0.5218 -18.8788 -0.6589 -1.3718 23.7329 -0.6720 -0.7689 10.7573 0.0000 -0.0000 0.0000 -79.8833 12.2413 41.3343 15.5181 -24.8629 -3.4408 -0.0000 0.0000 -7.5915 8.0347 27.1773 3.6890 -7.1250 0.0000 -0.0000 -23.8017 55.7558 -6.5480 0.0000 -0.0000 0.0000 85.0246 -7.0706 32.9306 -14.2911 23.1494 -2.9416 0.0000 0.0000 6.4327 -21.9280 9.6917 -3.8770 7.1250 -0.0000 -0.0000 3.5970 -19.5590 2.1895
0.00 0.00 0.00 178.1040 -40.2158 -169.6100 0.0000 0.0000 0.0000 -16.1536 5.1479 -19.0023 10.0079 17.4143 59.5148 -0.2910 -10.7842 9.3877 0.8077 -5.7356 -16.0191 0.0000 0.0000 0.0000 20.5140 0.2163 -26.0196 -1.9201 -8.6976 24.8539 -0.0271 10.2677 -7.6322 -0.0280 -1.0811 2.9720 -0.9361 -1.3574 -8.2735 0.1498 -1.8360 -2.2584 0.4922 -0.9622 2.3329 0.9188 -1.0368 -18.4981 -0.6133 -1.9915 23.2687 -0.6882 -1.0660 10.5103 -0.0000 0.0000 0.0000 -79.3176 13.0118 42.6947 17.8168 -27.9219 -4.4631 -0.0000 0.0000 -8.4248 8.6334 25.1790 3.6960 -7.1250 0.0000 -0.0000 -21.9593 54.0362 -5.0648 -0.0000 0.0000 0.0000 84.1191 -6.0740 36.7600 -15.5564 24.9155 -3.4570 0.0000 0.0000 3.1712 -21.5928 9.5765 -3.7672 7.1250 -0.0000 -0.0000 3.8335 -19.7073 2.3214
0.00 0.00 0.00 178.4580 -40.3137 -170.9210 0.0000 0.0000 0.0000 -16.4714 3.6539 -30.5473 12.1234 18.4423 66.3794 -0.0348 -7.2818 -4.2568 0.9695 -6.2689 -17.5666 0.0000 0.0000 0.0000 21.7164 -1.8297 -21.3411 -2.1889 -9.2489 26.5771 -0.2793 13.1048 -12.4021 -0.0449 -1.3677 3.7611 -0.2901 -0.6433 -7.6305 -0.2581 -0.9071 -1.8954 -0.1903 -0.4876 2.3191 0.9550 -1.1653 -18.5936 -0.3373 -2.3509 24.4395 -0.6663 -1.2121 10.9614 0.0000 0.0000 0.0000 -79.9836 11.5888 39.9921 19.5659 -30.1158 -5.3118 -0.0000 0.0000 -12.4582 13.0264 26.3048 5.8537 -7.1250 0.0000 -0.0000 -18.2801 55.9339 -5.0232 0.0000 0.0000 0.0000 85.0702 -1.7122 36.8889 -15.6085 24.9869 -3.4789 0.0000 0.0000 2.2766 -22.2308 10.7629 -4.3647 7.1250 -0.0000 -0.0000 3.4135 -18.3871 2.1664
0.00 0.00 0.00 4.2870 -45.6063 9.1969 0.0000 0.0000 0.0000 -24.1136 11.9093 -28.9270 4.9515 13.3289 40.6126 1.8523 -1.0217 -25.4560 0.4654 -4.3756 -12.1357 0.0000 0.0000 0.0000 19.4887 -7.7898 -24.1506 -3.3077 -11.1773 32.8801 -2.1083 3.6317 -26.5764 -0.0988 2.0272 -5.5808 -2.0502 -1.2696 -7.7545 0.0313 -1.5449 -1.6576 1.0294 -0.7921 2.6867 1.7033 -0.8249 -17.9970 -3.0899 -0.9789 23.9128 -1.5453 -0.7257 10.6368 0.0000 0.0000 0.0000 -76.1266 8.3435 34.1740 18.6784 -29.0171 -4.8739 -0.0000 0.0000 -15.7328 13.0040 26.7682 5.9381 -7.1250 0.0000 -0.0000 -18.5809 56.3698 -5.3087 0.0000 0.0000 0.0000 76.2498 0.9755 32.2558 -10.9064 18.1446 -1.7467 0.0000 0.0000 11.5648 -20.5019 8.8667 -3.2986 7.1250 -0.0000 -0.0000 4.6040 -20.5382 2.7048
0.00 0.00 0.00 4.8461 28.6675 13.1315 0.0000 0.0000 0.0000 -21.9460 -4.0574 -20.7594 2.2843 9.4348 27.1651 -2.5806 -28.8198 0.3049 0.0988 2.0266 5.5792 0.0000 0.0000 0.0000 12.9366 9.8552 -13.5773 -2.9362 -10.5911 30.9129 -0.9365 16.5817 -19.4687 -0.0611 1.5952 -4.3881 -3.8654 -1.2469 -8.2366 -1.7638 -1.2613 -2.1506 0.2200 -0.6322 2.4328 3.2537 0.4019 -17.9686 -3.2367 0.4752 21.8794 -1.6129 0.1283 9.9406 -0.0000 -0.0000 0.0000 -78.8117 3.1441 41.7715 21.5916 -32.5124 -6.3649 -0.0000 0.0000 -13.3252 9.5024 27.6458 4.4411 -7.1250 0.0000 -0.0000 -22.6648 56.4776 -6.6148 -0.0000 -0.0000 0.0000 82.8588 -0.4417 49.7916 -24.6404 35.8342 -8.0784 0.0000 -0.0000 -1.1635 -19.5172 10.1903 -3.5883 7.1250 -0.0000 -0.0000 5.3215 -19.2075 3.2887
